<?xml version="1.0" encoding="utf-8"?>
<!-- Generator: Adobe Illustrator 22.0.0, SVG Export Plug-In . SVG Version: 6.00 Build 0)  -->
<svg version="1.1" id="Layer_1" xmlns="http://www.w3.org/2000/svg" xmlns:xlink="http://www.w3.org/1999/xlink" x="0px" y="0px"
	 viewBox="0 0 100 100" style="enable-background:new 0 0 100 100;" xml:space="preserve">
<style type="text/css">
	.st0{fill:none;stroke:#293448;stroke-width:2.8643;stroke-miterlimit:10;}
	.st1{fill:none;stroke:#293448;stroke-width:2.8643;stroke-linecap:round;stroke-linejoin:round;stroke-miterlimit:10;}
</style>
<g>
	<path class="st0" d="M81.2,91.6c-4.4,3.4-9.8,7.5-16.9,7c-3.4-0.3-5.9-1.3-9.5-3.1c-2.8-1.3-5.7-3.1-14.5-10.7
		c-3.7-3.1-7.6-6.5-12.9-11.6c-4.7-4.5-8.5-8.5-11.3-11.6c-1.2-2.1-0.9-4.7,0.7-6.2c1.4-1.3,3.4-1.6,5.2-0.9
		c4.3,3.9,8.7,7.8,13,11.7c3,2.2,6.5,4.5,6.9,4c0.5-0.6-2.9-4.4-4.6-6.4c-4.6-5.2-12-13.4-22.9-25.4c-1-2.2-0.6-4.8,0.9-6.2
		c2-1.9,5.8-1.8,8.1,0.9c6.7,7.2,18.5,20,22.1,23.2c0.5,0.5,1.8,1.6,2.2,1.3c0.4-0.3-0.4-2-1.1-3.4C42.6,50.3,38.3,45.9,34,41
		c-5.5-6.2-10.2-12.2-14.2-17.9c-1.6-2.6-1-6,1.2-7.7c2.5-1.9,6.5-1.4,8.4,1.6c8.2,9.5,16.5,18.9,24.7,28.4c0.4,0.3,1,0.3,1.3,0.1
		c0.5-0.4,0-1.9-0.1-2.1C54.6,41,39.8,22.9,35.6,17.8c-1.3-2.6-0.5-5.7,1.7-7.3c1.9-1.4,4.5-1.3,6.5,0.1c9,11.2,17.9,22.4,26.9,33.6
		c0.5,0.3,2,1.2,4,1.1c0.3,0,2.4-0.2,3.8-1.7c2.3-2.4,0-5.4,1.6-10.5c0.3-1.1,1.3-4,3.9-6.1c3.1-2.5,7.7-3.3,10.8-1.5
		c0.6,0.3,1.5,0.9,1.9,1.9c0.9,2.2-0.9,4.8-1.7,6c-1.2,1.9-1.7,6.1-2.8,14.3C90.5,62.4,96.8,66,93.7,76
		C91.2,83.8,85.2,88.5,81.2,91.6z"/>
	<path class="st1" d="M54.4,11.5c1.8,1.1,4.1,2.9,6.2,5.5c3.7,4.4,5,9.1,5.6,11.7"/>
	<path class="st1" d="M59,6c2.3,1.7,5,4.2,7.6,7.6c3.8,4.9,5.8,9.8,6.8,13.1"/>
	<path class="st1" d="M10.7,64.8c1.1,2.1,2.6,4.5,4.8,7c3.2,3.7,6.5,6.1,9,7.5"/>
	<path class="st1" d="M2.9,67.8c1.8,2.8,4.2,6.1,7.4,9.5c3.8,4,7.6,6.8,10.7,8.8"/>
</g>
</svg>
