<svg xmlns="http://www.w3.org/2000/svg" viewBox="0 0 431.75 397.83"><defs><style>.cls-1,.cls-2{fill:none;stroke:#b00;stroke-linecap:round;stroke-linejoin:round;stroke-width:7px;}.cls-2{stroke-dasharray:17.81 19.79;}</style></defs><title>beeline</title><g id="Layer_2" data-name="Layer 2"><g id="visual"><path class="cls-1" d="M81.82,394.33l5.56-7.08"/><path class="cls-2" d="M99.62,371.7l29.18-37.08c6.43-8.18,13-16.69,15.49-26.8,3.94-16.22-4-33.71-16.78-44.51s-29.43-15.84-46-18.15c-9.82-1.37-20.47-1.72-28.93,3.46-15.8,9.68-15,35.19-1.89,48.25s33.69,15.61,52,12.81c53.83-8.21,93.41-53,140.41-80.54a234.19,234.19,0,0,1,121.57-31.79c22.79.41,48.75,6.35,59.46,26.47,11.75,22.07-3.34,51.82-26.71,60.69s-50.64.29-69.69-15.91-31.31-38.87-41.71-61.6c-20.86-45.56-36.66-94.54-68.6-133.15C171.25,18,92.13-7.83,21.67,8.19"/><path class="cls-1" d="M12.09,10.64c-2.88.83-5.75,1.72-8.59,2.69"/></g></g></svg>