<svg xmlns="http://www.w3.org/2000/svg" viewBox="0 0 162.37 162.99"><defs><style>.cls-1{fill:#f2b705;}</style></defs><title>star</title><g id="Layer_2" data-name="Layer 2"><g id="visual"><path class="cls-1" d="M147.56,17.43c2.18,2.16-2.08,9.06-6.36,18a181.27,181.27,0,0,0-12.81,36.18,260.59,260.59,0,0,0,16.66,23c11.67,14.38,18.81,20.09,17,23.51-1.93,3.75-13.12,1.9-29.31-.77-19.65-3.25-23-6-28.81-3.29s-5.84,7.17-15.52,24.87c-9,16.39-13.52,24.72-17.54,24.11-5.82-.9-9.42-20.47-10-33.6-.46-11.48,1.36-19.87-4.26-24.79-2.1-1.83-4.63-2.46-9.61-3.64-8.68-2.06-14.58-1.66-19.56-1.85C16.87,98.69.71,95.25,0,90.12c-.36-2.72,3.75-5,25.39-17.45,18-10.33,20-11.58,21.93-15.07,2.2-4,2.25-7.31,0-31.95C45.66,6.74,45,1.32,47.39.18c2.13-1,5.13,2,15.47,11.88C83.55,31.77,87.29,34.65,92.94,35.14c4.22.36,8.91-1.24,18.31-4.45,4-1.36,5.31-2.07,15.45-6.38C144.23,16.87,146.47,16.36,147.56,17.43Z"/></g></g></svg>