<svg xmlns="http://www.w3.org/2000/svg" viewBox="0 0 480 556.41"><defs><style>.cls-1{fill:#355070;}</style></defs><title>three</title><g id="Layer_2" data-name="Layer 2"><g id="Layer_6" data-name="Layer 6"><path class="cls-1" d="M320.82,126.27c-6,3.62-11.86,7.55-16.36,12.88-4.82,5.7-7.79,12.7-10.41,19.69a275.67,275.67,0,0,0-10.25,33.9c-1.27,5.43-2.36,11.21-.61,16.51,2.35,7.13,9.65,11.88,17.1,12.7s14.95-1.72,21.42-5.53a58.34,58.34,0,0,0,28.14-49.88c-.12-11.07-3.45-21.87-4.14-32.92C344.44,113.39,334.87,117.75,320.82,126.27Z"/><path class="cls-1" d="M241.47,28.81c-5.71,4.67-8.06,12.21-9.89,19.36a18.93,18.93,0,0,0-.85,6.58,14.21,14.21,0,0,0,3,6.89c4,5.3,9.84,8.86,15.72,11.91,4,2.1,8.24,4,12.75,4.58s9.41-.56,12.58-3.82c2.79-2.88,3.86-7,4.82-10.88l3.11-12.64a36,36,0,0,0,1.49-10.18C283.27,20.63,253.7,18.81,241.47,28.81Z"/><path class="cls-1" d="M192.84,164.8a17,17,0,0,1,3.31,7c.55,3.79-1.27,7.47-3.1,10.83a301.23,301.23,0,0,1-20.12,31.94c-2.34,3.24-4.83,6.52-8.3,8.49-3.95,2.25-8.68,2.55-13.23,2.78-1.8.1-3.78.14-5.19-1a6.79,6.79,0,0,1-2-3.58c-3.65-12.25-.57-25.38,2.81-37.7,3.33-12.14,7.41-30.1,17.68-38.55S187.72,157.38,192.84,164.8Z"/><path class="cls-1" d="M170.67,392.18a17.16,17.16,0,0,1,3.3,7c.55,3.79-1.27,7.47-3.1,10.83A301.23,301.23,0,0,1,150.75,442c-2.34,3.24-4.83,6.52-8.3,8.49-3.95,2.25-8.68,2.55-13.23,2.78-1.8.1-3.78.14-5.19-1a6.79,6.79,0,0,1-2-3.58c-3.65-12.25-.57-25.38,2.81-37.7,3.33-12.14,7.42-30.1,17.68-38.55S165.54,384.77,170.67,392.18Z"/><path class="cls-1" d="M448.65,121.94C456,114,462.2,105,469.7,97.19c4.13-4.31,8.88-8.65,10.05-14.5,1.74-8.73-5.88-17.29-14.58-19.16s-17.72,1.41-25.35,6a76,76,0,0,0-21.94,20C415,93.44,412.35,98.11,413,103c.74,5.59,5.46,8.76,7.35,13.71,1.66,4.34-.57,13,1.67,16.14C429.17,142.94,443.41,127.58,448.65,121.94Z"/><path class="cls-1" d="M299.47,405.42c-3.24,11-4.83,22.42-8.23,33.35-1.87,6-4.32,12.38-2.66,18.47,2.46,9.08,13.71,13.58,22.83,11.24s16.1-9.7,21.15-17.64a80.22,80.22,0,0,0,11.33-29.25c.89-5.1,1.18-10.75-1.72-15-3.34-4.94-9.3-5.71-13.43-9.5-3.61-3.32-5.58-12.54-9.2-14.49C308,376.36,301.77,397.62,299.47,405.42Z"/><path class="cls-1" d="M111.49,5.83c-5.65,4.63-9.61,11-13.29,17.29A394.51,394.51,0,0,0,70.87,80.21a14.71,14.71,0,0,0-1.37,6.18c.37,5.25,5.81,8.43,10.62,10.56s9.8,4.15,15,3.82c9-.56,16-7.84,21.1-15.19,14.76-21.07,22.14-46.28,29.29-71a5.26,5.26,0,0,0,.13-3.76C138.83-2.95,121.51-2.38,111.49,5.83Z"/><path class="cls-1" d="M215.79,464.79c-6.27,3.76-11.11,9.46-15.66,15.18a394.22,394.22,0,0,0-35.34,52.5,14.78,14.78,0,0,0-2.25,5.92c-.4,5.25,4.52,9.19,9,12s9.1,5.53,14.3,6c8.94.75,16.92-5.44,23.08-12,17.66-18.7,28.63-42.57,39.29-66,.53-1.17,1.08-2.48.68-3.7C244.12,460.07,226.89,458.12,215.79,464.79Z"/><path class="cls-1" d="M405,231.57c-6.56,3.24-11.85,8.52-16.86,13.84a394.05,394.05,0,0,0-39.56,49.4,14.81,14.81,0,0,0-2.74,5.71c-.82,5.2,3.75,9.53,8,12.69s8.61,6.27,13.76,7.13c8.85,1.49,17.31-4,24-10,19.15-17.18,32.06-40.06,44.62-62.51a5.28,5.28,0,0,0,1-3.63C433.62,229.22,416.62,225.85,405,231.57Z"/><path class="cls-1" d="M17.77,271.36l-16,64.73c-1.52,6.17-3,12.91-.36,18.7,3.68,8,13.54,10.8,22.2,12.64,3.74.79,7.92,1.51,11.14-.54,2.29-1.45,3.59-4,4.74-6.47,10.21-21.73,17.44-46,13-69.63a147.37,147.37,0,0,0-4-15.41C42.13,254.23,24.34,244.71,17.77,271.36Z"/><path class="cls-1" d="M213.64,330.7c-2.82,4.18-5.72,8.52-6.6,13.49s.84,10.77,5.3,13.12c4.06,2.13,9.23.83,12.87-1.95s6.1-6.8,8.55-10.68a404.47,404.47,0,0,1,41.4-54.84c2.15-2.39,4.37-4.83,5.55-7.82,1.35-3.4,1.21-7.19,1.06-10.85-.49-11.43,2.47-17.34-8.4-13.23-7.88,3-16.47,15.45-21.91,21.64C237.45,295.5,225.48,313.13,213.64,330.7Z"/><path class="cls-1" d="M61.11,512.86c-1,3.94-2.07,8-1.62,12,.8,7.25,6.22,13.14,12,17.58,1,.77,2.31,1.55,3.47,1a3.52,3.52,0,0,0,1.32-1.25,50,50,0,0,0,7.89-16.54,19.75,19.75,0,0,0,.83-6.47c-.31-4.23-2.85-8.05-6.06-10.82-2.57-2.23-8.69-7.14-12.13-6S61.9,509.86,61.11,512.86Z"/></g></g></svg>